<?xml version="1.0" encoding="iso-8859-1"?>
<!-- Generator: Adobe Illustrator 19.0.0, SVG Export Plug-In . SVG Version: 6.00 Build 0)  -->
<svg version="1.1" id="Layer_1" xmlns="http://www.w3.org/2000/svg" xmlns:xlink="http://www.w3.org/1999/xlink" x="0px" y="0px"
	 viewBox="0 0 512 512" style="enable-background:new 0 0 512 512;" xml:space="preserve">
<g>
	<g>
		<path d="M340.885,96.776c18.694-7.275,31.984-25.453,31.984-46.689C372.87,22.469,350.401,0,322.783,0H189.217
			c-27.618,0-50.087,22.469-50.087,50.087c0,21.236,13.29,39.414,31.984,46.688c-8.359,74.551-48.68,94.762-48.68,187.399v177.74
			c0,27.618,22.469,50.087,50.087,50.087h166.957c27.618,0,50.087-22.469,50.087-50.087v-177.74
			C389.565,191.059,349.271,171.561,340.885,96.776z M189.217,33.391h133.565c9.206,0,16.696,7.49,16.696,16.696
			s-7.49,16.696-16.696,16.696H189.217c-9.206,0-16.696-7.49-16.696-16.696S180.011,33.391,189.217,33.391z M179.107,185.553
			c13.486-26.972,21.933-55.629,25.226-85.379h103.334c3.295,29.75,11.74,58.407,25.226,85.379
			c5.699,11.396,10.39,23.303,14.033,35.526c-11.773,5.734-53.327,39.923-101.829,7.586c-22.895-15.263-50.02-21.486-76.544-18.218
			C171.562,201.942,175.075,193.617,179.107,185.553z M356.174,461.913c0,9.206-7.49,16.696-16.696,16.696H172.522
			c-9.206,0-16.696-7.49-16.696-16.696v-177.74c0-12.622,1.112-25.249,3.279-37.695c22.737-6.925,47.405-3.405,67.47,9.972
			c35.438,23.627,81.424,27.573,127.638-1.288c1.286,9.619,1.96,19.316,1.96,29.011V461.913z"/>
	</g>
</g>
<g>
</g>
<g>
</g>
<g>
</g>
<g>
</g>
<g>
</g>
<g>
</g>
<g>
</g>
<g>
</g>
<g>
</g>
<g>
</g>
<g>
</g>
<g>
</g>
<g>
</g>
<g>
</g>
<g>
</g>
</svg>
